<?xml version="1.0" encoding="utf-8"?>
<!-- Generator: Adobe Illustrator 16.0.0, SVG Export Plug-In . SVG Version: 6.00 Build 0)  -->
<!DOCTYPE svg PUBLIC "-//W3C//DTD SVG 1.1//EN" "http://www.w3.org/Graphics/SVG/1.1/DTD/svg11.dtd">
<svg version="1.1" id="图层_1" xmlns="http://www.w3.org/2000/svg" xmlns:xlink="http://www.w3.org/1999/xlink" x="0px" y="0px"
	 width="48px" height="48px" viewBox="0 0 48 48" enable-background="new 0 0 48 48" xml:space="preserve">
<title>ic_iphone</title>
<desc>Created with Sketch.</desc>
<g id="Page_style-guide">
	<g id="a_1" transform="translate(-60.000000, -229.000000)">
		<g id="Group-2" transform="translate(40.000000, 209.000000)">
			<g id="Group-2-Copy">
			</g>
			<g id="ic_iphone" transform="translate(20.000000, 20.000000)">
				<rect id="Rectangle-212-Copy" x="-19.169" y="-19.169" fill="none" width="86.338" height="86.338"/>
				<g id="Fill-1-Copy-3">
					<g>
						<path id="path-1" fill="#CCAFAC" d="M16.824,32.973C14.312,30.57,8.63,26.138,6.018,20.965
							c-3.221-6.379-3.603-8.467-3.603-10.807s0.583-3.189,1.201-3.602C4.234,6.143,8.79,3.054,8.79,3.054s1.114-0.831,2.134,1.038
							c0.813,1.49,4.7,7.267,4.7,7.267s0.982,0.773,1.15,1.974c0.125,0.894-0.816,1.972-1.456,2.626
							c-1.329,1.356-1.709,1.472-1.709,3.25c0,1.78,4.349,6.641,5.58,7.873c1.232,1.23,1.107,1.237,2.403,2.402
							c1.538,1.382,5.543,5.003,7.241,4.466c1.555-0.493,2.165-0.503,3.58-2.037c1.18-1.279,3.519-0.526,4.488,0.235
							s5.94,3.472,7.355,4.4c1.42,0.931,1.328,2.456,1.328,2.456s-2.904,4.367-3.298,4.958c-0.416,0.618-1.509,1.17-3.847,1.17
							c-2.341,0-4.739,0.017-10.808-3.754C22.821,38.386,19.336,35.373,16.824,32.973"/>
					</g>
					<g>
						<path id="path-1_1_" fill="#C0C0C0" d="M16.824,32.973C14.312,30.57,8.63,26.138,6.018,20.965
							c-3.221-6.379-3.603-8.467-3.603-10.807s0.583-3.189,1.201-3.602C4.234,6.143,8.79,3.054,8.79,3.054s1.114-0.831,2.134,1.038
							c0.813,1.49,4.7,7.267,4.7,7.267s0.982,0.773,1.15,1.974c0.125,0.894-0.816,1.972-1.456,2.626
							c-1.329,1.356-1.709,1.472-1.709,3.25c0,1.78,4.349,6.641,5.58,7.873c1.232,1.23,1.107,1.237,2.403,2.402
							c1.538,1.382,5.543,5.003,7.241,4.466c1.555-0.493,2.165-0.503,3.58-2.037c1.18-1.279,3.519-0.526,4.488,0.235
							s5.94,3.472,7.355,4.4c1.42,0.931,1.328,2.456,1.328,2.456s-2.904,4.367-3.298,4.958c-0.416,0.618-1.509,1.17-3.847,1.17
							c-2.341,0-4.739,0.017-10.808-3.754C22.821,38.386,19.336,35.373,16.824,32.973"/>
					</g>
				</g>
			</g>
		</g>
	</g>
</g>
</svg>
