<?xml version="1.0" encoding="utf-8"?>
<!-- Generator: Adobe Illustrator 16.0.0, SVG Export Plug-In . SVG Version: 6.00 Build 0)  -->
<!DOCTYPE svg PUBLIC "-//W3C//DTD SVG 1.1//EN" "http://www.w3.org/Graphics/SVG/1.1/DTD/svg11.dtd">
<svg version="1.1" id="图层_1" xmlns="http://www.w3.org/2000/svg" xmlns:xlink="http://www.w3.org/1999/xlink" x="0px" y="0px"
	 width="48px" height="48px" viewBox="0 0 48 48" enable-background="new 0 0 48 48" xml:space="preserve">
<g>
	<path fill="#C1C0C0" d="M18.279,35.153v7.625c0,1.055-0.845,1.91-1.905,1.91h-1.911c-1.052,0-1.905-0.838-1.905-1.91v-7.625H4.934
		c-1.056,0-1.912-0.845-1.912-1.907v-1.91c0-1.05,0.838-1.904,1.912-1.904h7.624V17.989H4.934c-1.056,0-1.912-0.845-1.912-1.905
		v-1.911c0-1.052,0.838-1.905,1.912-1.905h7.624V4.645c0-1.056,0.845-1.912,1.905-1.912h1.911c1.052,0,1.905,0.838,1.905,1.912
		v7.624h11.442V4.645c0-1.056,0.847-1.912,1.905-1.912h1.911c1.053,0,1.905,0.838,1.905,1.912v7.624h7.624
		c1.055,0,1.911,0.845,1.911,1.905v1.911c0,1.052-0.838,1.905-1.911,1.905h-7.624v11.442h7.624c1.055,0,1.911,0.847,1.911,1.904
		v1.91c0,1.055-0.838,1.907-1.911,1.907h-7.624v7.625c0,1.055-0.846,1.91-1.905,1.91h-1.911c-1.052,0-1.905-0.838-1.905-1.91v-7.625
		H18.279z"/>
</g>
<rect x="18.3" y="17.901" fill="#FFFFFF" width="11.963" height="11.513"/>
</svg>
