<?xml version="1.0" standalone="no"?><!DOCTYPE svg PUBLIC "-//W3C//DTD SVG 1.1//EN" "http://www.w3.org/Graphics/SVG/1.1/DTD/svg11.dtd"><svg width="200" height="200" viewBox="0 0 200 200" version="1.1" xmlns="http://www.w3.org/2000/svg" xmlns:xlink="http://www.w3.org/1999/xlink"><defs><style type="text/css"><![CDATA[
@font-face { font-family: ifont; src: url("//at.alicdn.com/t/font_1442373896_4754455.eot?#iefix") format("embedded-opentype"), url("//at.alicdn.com/t/font_1442373896_4754455.woff") format("woff"), url("//at.alicdn.com/t/font_1442373896_4754455.ttf") format("truetype"), url("//at.alicdn.com/t/font_1442373896_4754455.svg#ifont") format("svg"); }

]]></style></defs><g class="transform-group"><g transform="scale(0.1953125, 0.1953125)"><path d="M462.769231 728.615385C609.592009 728.615385 728.615385 609.592009 728.615385 462.769231 728.615385 315.946454 609.592009 196.923077 462.769231 196.923077 315.946454 196.923077 196.923077 315.946454 196.923077 462.769231 196.923077 609.592009 315.946454 728.615385 462.769231 728.615385L462.769231 728.615385ZM462.769231 669.538462C348.573738 669.538462 256 576.964722 256 462.769231 256 348.573738 348.573738 256 462.769231 256 576.964722 256 669.538462 348.573738 669.538462 462.769231 669.538462 576.964722 576.964722 669.538462 462.769231 669.538462ZM604.958106 646.7318 808.289312 850.063002C819.824798 861.598492 838.527516 861.598492 850.063002 850.063002 861.598492 838.527516 861.598492 819.824798 850.063002 808.289312L660.04773 618.27404C648.512244 606.73855 629.809526 606.73855 618.27404 618.27404 606.73855 629.809526 614.656819 652.279418 626.192309 663.814904L604.958106 646.7318Z" fill="#cdcdcd"></path></g></g></svg>